:version 1.10
:name ASF
:units
  mass 1
  length 1
  angle deg
:documentation
  ASF file generated by Kaydara
:root
  axis xyz
  order  tx ty tz rx ry rz
  position 0 0 0
  orientation 0 0 0
:bonedata
  begin
    id 1
    name RightUpLegDummy
    direction -0.718183 -0.695806 0.00816078
    length 4.904
    axis 0 0 0 xyz
  end
  begin
    id 2
    name RightUpLeg
    direction 3.53989e-006 -0.995788 0.0916897
    length 17.4976
    axis -3.49089 -0.000906621 0.000287158 xyz
    dof rx ry rz
  end
  begin
    id 3
    name RightLeg
    direction 0.00371093 -0.995096 -0.0988418
    length 16.5821
    axis 3.68512 0.0193738 -0.131023 xyz
    dof rx ry rz
  end
  begin
    id 4
    name RightFoot
    direction 0.000791514 -0.46099 0.887405
    length 3.77069
    axis 4.84075e-005 -0.120479 -0.188788 xyz
    dof rx ry rz
  end
  begin
    id 5
    name RightToes
    direction 0.00124746 -0.014064 0.9999
    length 3.85082
    axis 0.00048216 0.542163 -0.142577 xyz
    dof rx ry rz
  end
  begin
    id 6
    name SpineDummy
    direction 8.36599e-015 1 5.97571e-016
    length 4.6813
    axis 0 0 0 xyz
  end
  begin
    id 7
    name Spine
    direction -4.63632e-008 0.999988 0.00495137
    length 10.1015
    axis -0.00138897 0.000121419 3.25764e-006 xyz
    dof rx ry rz
  end
  begin
    id 8
    name Spine1
    direction 0 0 0
    length 0
    axis -0.00138896 0.000121452 2.39764e-006 xyz
    dof rx ry rz
  end
  begin
    id 9
    name HEadDummy
    direction -3.91456e-008 0.999999 0.00127422
    length 3.43865
    axis -0.00138896 0.000121452 2.39764e-006 xyz
  end
  begin
    id 10
    name HEad
    direction -0.0222688 0.980941 0.193023
    length 5.12695
    axis -0.00138895 0.000121452 2.39764e-006 xyz
    dof rx ry rz
  end
  begin
    id 11
    name LeftShoulder1Dummy
    direction 0.998891 -0.0402508 -0.0244456
    length 3.5433
    axis -0.00138896 0.000121452 2.39764e-006 xyz
  end
  begin
    id 12
    name LeftShoulder1
    direction 0.99951 -0.000327743 0.0313091
    length 4.05031
    axis -0.00138896 0.000121452 2.39764e-006 xyz
    dof rx ry rz
  end
  begin
    id 13
    name LeftArm
    direction 0.998561 -0.00100054 -0.0536182
    length 10.3537
    axis -23.1894 0.134784 0.96751 xyz
    dof rx ry rz
  end
  begin
    id 14
    name LeftForeArm
    direction 0.998903 0.00866434 0.046012
    length 8.70632
    axis -9.91835 -0.06569 -0.177792 xyz
    dof rx ry rz
  end
  begin
    id 15
    name LeftHand
    direction 0.992938 -0.0411636 0.11126
    length 5.32135
    axis -0.00960227 -0.00340091 0.185174 xyz
    dof rx ry rz
  end
  begin
    id 16
    name RightShoulderDummy
    direction -0.998891 -0.0402509 -0.0244414
    length 3.5433
    axis -0.00138896 0.000121452 2.39764e-006 xyz
  end
  begin
    id 17
    name RightShoulder
    direction -0.99951 -0.000327827 0.0313133
    length 4.05031
    axis 0.215806 0.000203644 -0.00680151 xyz
    dof rx ry rz
  end
  begin
    id 18
    name RightArm
    direction -0.998573 -0.000999583 -0.053403
    length 10.3947
    axis -23.2009 -0.134239 -0.9641 xyz
    dof rx ry rz
  end
  begin
    id 19
    name RightForeArm
    direction -0.998898 0.00868026 0.0461306
    length 8.68355
    axis -9.92322 0.0658061 0.178869 xyz
    dof rx ry rz
  end
  begin
    id 20
    name RightHand
    direction -0.992843 -0.0414603 0.112003
    length 5.28593
    axis -0.00960634 0.00330671 -0.185226 xyz
    dof rx ry rz
  end
  begin
    id 21
    name LeftUpLegDummy
    direction 0.718183 -0.695806 0.00816078
    length 4.904
    axis 0 0 0 xyz
  end
  begin
    id 22
    name LeftUpLeg
    direction -6.8115e-006 -0.995793 0.0916336
    length 17.4976
    axis -3.48766 0.00143441 -0.000523914 xyz
    dof rx ry rz
  end
  begin
    id 23
    name LeftLeg
    direction -0.00601357 -0.995091 -0.0987824
    length 16.5821
    axis 3.68177 -0.00654038 -0.00028478 xyz
    dof rx ry rz
  end
  begin
    id 24
    name LeftFoot
    direction -0.00417578 -0.460984 0.887399
    length 3.77069
    axis 1.87232e-006 4.66002e-005 -8.1837e-006 xyz
    dof rx ry rz
  end
  begin
    id 25
    name LeftToes
    direction 0.00818058 -0.00485161 0.999955
    length 3.85048
    axis 1.06246e-005 4.65855e-005 -8.18502e-006 xyz
    dof rx ry rz
  end
:hierarchy
  begin
    root RightUpLegDummy SpineDummy LeftUpLegDummy
    RightUpLegDummy RightUpLeg
    RightUpLeg RightLeg
    RightLeg RightFoot
    RightFoot RightToes
    SpineDummy Spine
    Spine Spine1
    Spine1 HEadDummy LeftShoulder1Dummy RightShoulderDummy
    HEadDummy HEad
    LeftShoulder1Dummy LeftShoulder1
    LeftShoulder1 LeftArm
    LeftArm LeftForeArm
    LeftForeArm LeftHand
    RightShoulderDummy RightShoulder
    RightShoulder RightArm
    RightArm RightForeArm
    RightForeArm RightHand
    LeftUpLegDummy LeftUpLeg
    LeftUpLeg LeftLeg
    LeftLeg LeftFoot
    LeftFoot LeftToes
  end

:SAMPLES-PER-SECOND 30
:FULLY-SPECIFIED
:DEGREES
27
root  -0.112077 40.1601 14.7483 -177.195 -7.6244 179.558
RightUpLeg  -10.9478 -4.55896 -0.459642
RightLeg  10.0226 1.46191 0.366848
RightFoot  -0.665419 0.0231374 -0.296745
RightToes  -5.8209e-011 0 -3.6325e-017
Spine  28.9306 -4.0069 12.4497
Spine1  19.3119 -0.926212 -0.595156
HEad  19.3313 -10.8363 0.396021
LeftShoulder1  7.09862 -16.5605 -29.3048
LeftArm  14.9003 -33.7656 -66.6248
LeftForeArm  -7.09793 -7.32118 -13.6767
LeftHand  -0.246645 0.021 5.37786
RightShoulder  8.72299 16.7819 36.9548
RightArm  7.49907 39.4549 41.9033
RightForeArm  1.83373 11.9778 11.1986
RightHand  -0.24729 -0.0210522 -5.37781
LeftUpLeg  -11.7418 8.17818 7.24255
LeftLeg  5.55676 -9.11457 -2.75918
LeftFoot  4.32039 0.583013 -4.43235
LeftToes  -7.45818e-011 -3.37383e-011 1.08613e-011
28
root  -0.424786 40.1771 14.7472 -177.101 -6.78192 179.836
RightUpLeg  -10.8908 -4.41866 -0.547505
RightLeg  9.54043 2.16284 0.334651
RightFoot  -0.315421 -0.0191149 0.175928
RightToes  -5.8209e-011 0 -3.6325e-017
Spine  29.3263 -3.96391 12.0239
Spine1  19.4511 -0.7924 -0.961707
HEad  19.4621 -10.6138 0.261799
LeftShoulder1  7.13443 -16.6161 -29.3859
LeftArm  14.5362 -34.0439 -66.6231
LeftForeArm  -8.53868 -7.37045 -13.6733
LeftHand  -0.246645 0.021 5.37786
RightShoulder  8.72836 16.8 36.943
RightArm  5.05133 39.8664 42.167
RightForeArm  1.86438 10.9827 11.4332
RightHand  -0.24729 -0.0210522 -5.37781
LeftUpLeg  -11.763 8.49454 7.24189
LeftLeg  5.83023 -8.64904 -2.91439
LeftFoot  4.10076 0.588966 -4.52802
LeftToes  -7.45818e-011 -3.37383e-011 1.08613e-011
29
root  -0.765511 40.1768 14.7511 -176.961 -6.01512 -179.904
RightUpLeg  -11.0017 -4.30401 -0.687773
RightLeg  9.30543 2.8737 0.278285
RightFoot  -0.146604 -0.0666628 0.670217
RightToes  -5.8209e-011 0 -3.6325e-017
Spine  29.6494 -3.88353 11.5505
Spine1  19.4914 -0.68462 -1.24199
HEad  19.6378 -10.5423 0.130956
LeftShoulder1  7.15853 -16.6594 -29.4297
LeftArm  13.6627 -34.4854 -66.5977
LeftForeArm  -7.50234 -6.92609 -13.6103
LeftHand  -0.246645 0.021 5.37786
RightShoulder  8.71858 16.8037 36.8885
RightArm  3.29023 40.0458 42.4332
RightForeArm  0.608677 10.39 11.5246
RightHand  -0.24729 -0.0210522 -5.37781
LeftUpLeg  -11.9493 8.80474 7.14522
LeftLeg  6.28732 -8.13383 -3.00715
LeftFoot  3.91232 0.647795 -5.01407
LeftToes  -7.45818e-011 -3.37383e-011 1.08613e-011
30
root  -1.12597 40.1785 14.7684 -176.857 -5.38036 -179.848
RightUpLeg  -11.1961 -4.27608 -1.05491
RightLeg  9.33099 3.58709 0.176041
RightFoot  -0.0656986 -0.101574 1.02381
RightToes  -5.8209e-011 0 -3.6325e-017
Spine  30.0492 -3.7645 10.7784
Spine1  19.4892 -0.677969 -1.35164
HEad  19.6826 -10.5509 -0.0426171
LeftShoulder1  7.15324 -16.7004 -29.3289
LeftArm  13.1538 -34.9943 -66.799
LeftForeArm  -5.93241 -6.38359 -13.594
LeftHand  -0.246645 0.021 5.37786
RightShoulder  8.69777 16.7982 36.8002
RightArm  2.01706 40.2209 42.6965
RightForeArm  -0.881802 10.0117 11.5588
RightHand  -0.24729 -0.0210522 -5.37781
LeftUpLeg  -12.2285 8.85233 6.67203
LeftLeg  6.93242 -7.51658 -3.00284
LeftFoot  3.56596 0.599003 -4.74117
LeftToes  -7.45818e-011 -3.37383e-011 1.08613e-011
31
root  -1.49507 40.1809 14.7956 -176.796 -4.66608 -179.958
RightUpLeg  -11.5283 -4.12386 -1.56818
RightLeg  9.66742 4.2331 -0.0254086
RightFoot  -0.0235679 -0.142739 1.43844
RightToes  -5.8209e-011 0 -3.6325e-017
Spine  30.5816 -3.53738 9.68117
Spine1  19.4389 -0.687312 -1.30893
HEad  19.5862 -10.4428 -0.314445
LeftShoulder1  7.11898 -16.7223 -29.1164
LeftArm  13.5971 -35.2941 -67.1826
LeftForeArm  -5.37092 -6.36238 -13.6192
LeftHand  -0.246645 0.021 5.37786
RightShoulder  8.65934 16.7802 36.653
RightArm  1.34283 40.5056 43.0989
RightForeArm  -1.84774 9.79765 11.5654
RightHand  -0.24729 -0.0210522 -5.37781
LeftUpLeg  -12.4301 8.77903 6.01928
LeftLeg  7.51589 -6.66353 -2.99135
LeftFoot  3.18319 0.481723 -3.93193
LeftToes  -7.45818e-011 -3.37383e-011 1.08613e-011
32
root  -1.85306 40.1628 14.8199 -176.689 -3.64594 179.943
RightUpLeg  -12.1219 -3.48014 -2.05189
RightLeg  10.329 4.67349 -0.264836
RightFoot  -0.144513 -0.20607 2.09254
RightToes  -5.8209e-011 0 -3.6325e-017
Spine  31.0741 -3.1306 8.45042
Spine1  19.3822 -0.549047 -1.23707
HEad  19.445 -10.103 -0.684518
LeftShoulder1  7.08145 -16.7395 -28.896
LeftArm  14.2182 -35.2906 -67.5317
LeftForeArm  -5.33785 -6.68754 -13.5913
LeftHand  -0.246645 0.021 5.37786
RightShoulder  8.59917 16.7581 36.4092
RightArm  0.916074 40.8019 43.7342
RightForeArm  -2.16582 9.59953 11.5555
RightHand  -0.24729 -0.0210522 -5.37781
LeftUpLeg  -12.589 9.01053 5.52876
LeftLeg  8.03808 -5.76233 -3.12946
LeftFoot  2.8228 0.41249 -3.45926
LeftToes  -7.45818e-011 -3.37383e-011 1.08613e-011
33
root  -2.18759 40.1237 14.838 -176.521 -2.44437 179.912
RightUpLeg  -12.8737 -2.24764 -2.54033
RightLeg  11.1191 4.76405 -0.386589
RightFoot  -0.401828 -0.256754 2.65076
RightToes  -5.8209e-011 0 -3.6325e-017
Spine  31.363 -2.63443 7.28486
Spine1  19.3698 -0.271646 -1.26634
HEad  19.3184 -9.63332 -1.09181
LeftShoulder1  7.06718 -16.786 -28.7412
LeftArm  13.9228 -35.1655 -67.7001
LeftForeArm  -4.76634 -6.74693 -13.4738
LeftHand  -0.246645 0.021 5.37786
RightShoulder  8.54185 16.748 36.1533
RightArm  -0.0410311 41.0416 44.4296
RightForeArm  -1.76814 9.02425 11.5668
RightHand  -0.24729 -0.0210522 -5.37781
LeftUpLeg  -12.8358 9.62431 5.2009
LeftLeg  8.6781 -5.0905 -3.4109
LeftFoot  2.39153 0.385019 -3.31778
LeftToes  -7.45818e-011 -3.37383e-011 1.08613e-011
